<svg xmlns="http://www.w3.org/2000/svg" xmlns:xlink="http://www.w3.org/1999/xlink" width="1269" zoomAndPan="magnify" viewBox="0 0 951.75 314.250004" height="419" preserveAspectRatio="xMidYMid meet" version="1.0"><defs><g/><clipPath id="9bd14b7b96"><path d="M 1.007812 0 L 950.492188 0 L 950.492188 313.5 L 1.007812 313.5 Z M 1.007812 0 " clip-rule="nonzero"/></clipPath></defs><g clip-path="url(#9bd14b7b96)"><path fill="#ffffff" d="M 1.007812 0 L 950.742188 0 L 950.742188 321.066406 L 1.007812 321.066406 Z M 1.007812 0 " fill-opacity="1" fill-rule="nonzero"/><path fill="#ffffff" d="M 1.007812 0 L 950.742188 0 L 950.742188 313.585938 L 1.007812 313.585938 Z M 1.007812 0 " fill-opacity="1" fill-rule="nonzero"/></g><g fill="#ffffff" fill-opacity="1"><g transform="translate(178.721509, 163.527757)"><g><path d="M 62.519531 -66.128906 C 62.519531 -66.554688 62.203125 -66.660156 61.777344 -66.660156 L 3.503906 -66.660156 C 3.078125 -66.660156 2.761719 -66.554688 2.761719 -66.128906 L 2.230469 -53.816406 C 2.121094 -52.859375 3.820312 -52.753906 4.035156 -53.710938 C 5.625 -62.519531 5.414062 -64.21875 17.621094 -64.21875 L 23.988281 -64.21875 C 26.535156 -64.21875 28.660156 -63.476562 28.660156 -59.761719 L 28.660156 -7.003906 C 28.660156 -1.378906 25.582031 -2.230469 21.972656 -1.699219 C 21.015625 -1.484375 21.015625 0.105469 22.183594 0.105469 L 43.097656 0.105469 C 44.261719 0.105469 44.261719 -1.484375 43.203125 -1.699219 C 39.699219 -2.230469 36.515625 -1.378906 36.515625 -7.003906 L 36.515625 -59.761719 C 36.515625 -63.476562 38.636719 -64.21875 41.292969 -64.21875 L 47.660156 -64.21875 C 59.867188 -64.21875 59.65625 -62.519531 61.246094 -53.710938 C 61.460938 -52.753906 63.15625 -52.859375 63.050781 -53.816406 Z M 62.519531 -66.128906 "/></g></g></g><g fill="#ffffff" fill-opacity="1"><g transform="translate(244.00108, 163.527757)"><g><path d="M 58.273438 -1.804688 C 54.664062 -2.441406 51.585938 -1.484375 51.585938 -7.113281 L 51.585938 -35.347656 C 51.585938 -44.6875 43.308594 -49.464844 34.496094 -49.464844 C 27.703125 -49.464844 20.59375 -46.597656 16.878906 -40.65625 L 16.878906 -74.726562 C 16.878906 -75.46875 16.132812 -75.46875 15.605469 -75.152344 C 12.101562 -73.453125 7.855469 -72.179688 3.925781 -71.226562 C 2.230469 -70.695312 2.761719 -69.3125 3.820312 -69.3125 C 8.917969 -69.3125 9.554688 -69.3125 9.554688 -63.6875 L 9.554688 -7.113281 C 9.554688 -1.484375 6.476562 -2.441406 2.972656 -1.804688 C 1.910156 -1.59375 1.910156 0 3.078125 0 L 23.457031 0 C 24.519531 0 24.625 -1.59375 23.566406 -1.804688 C 19.957031 -2.441406 16.878906 -1.484375 16.878906 -7.113281 L 16.878906 -32.375 C 16.878906 -40.867188 25.050781 -45.429688 32.375 -45.429688 C 38.636719 -45.429688 44.261719 -42.246094 44.261719 -35.347656 L 44.261719 -7.113281 C 44.261719 -1.484375 41.183594 -2.441406 37.574219 -1.804688 C 36.621094 -1.59375 36.621094 0 37.683594 0 L 58.167969 0 C 59.230469 0 59.230469 -1.59375 58.273438 -1.804688 Z M 58.273438 -1.804688 "/></g></g></g><g fill="#ffffff" fill-opacity="1"><g transform="translate(305.140971, 163.527757)"><g><path d="M 47.660156 -27.808594 C 47.660156 -41.078125 38.425781 -49.570312 25.371094 -49.570312 C 10.828125 -49.570312 2.015625 -39.167969 2.230469 -24.308594 C 2.441406 -6.15625 14.964844 0.53125 26.855469 0.53125 C 35.453125 0.53125 42.988281 -3.289062 46.175781 -9.128906 C 46.917969 -10.402344 46.066406 -11.570312 45.113281 -11.570312 C 44.582031 -11.570312 43.945312 -11.25 43.519531 -10.507812 C 40.230469 -4.988281 34.710938 -2.652344 28.554688 -2.546875 C 19.425781 -2.335938 10.402344 -8.597656 10.296875 -24.414062 L 44.15625 -24.414062 C 46.597656 -24.414062 47.660156 -26.007812 47.660156 -27.808594 Z M 35.027344 -27.386719 L 10.507812 -27.386719 C 11.144531 -38.636719 15.921875 -46.175781 26.21875 -46.492188 C 35.664062 -46.492188 40.65625 -39.699219 40.65625 -32.691406 C 40.65625 -29.191406 39.0625 -27.386719 35.027344 -27.386719 Z M 35.027344 -27.386719 "/></g></g></g><g fill="#ffffff" fill-opacity="1"><g transform="translate(357.046196, 163.527757)"><g/></g></g><g fill="#ffffff" fill-opacity="1"><g transform="translate(380.292082, 163.527757)"><g><path d="M 121.855469 -66.660156 L 104.238281 -66.660156 C 103.175781 -66.660156 103.175781 -65.066406 104.128906 -64.855469 C 107.738281 -64.324219 111.5625 -64.855469 109.757812 -60.183594 L 89.480469 -12.101562 C 88.738281 -10.507812 87.996094 -10.507812 87.359375 -12.101562 L 67.828125 -66.660156 C 64.644531 -67.191406 63.476562 -66.660156 62.414062 -64.855469 C 62.203125 -64.429688 61.882812 -64.007812 61.777344 -63.6875 C 55.621094 -49.039062 46.386719 -26.855469 40.125 -12.101562 C 39.804688 -11.359375 39.378906 -10.933594 39.0625 -10.933594 C 38.636719 -10.933594 38.214844 -11.359375 37.894531 -12.101562 L 20.804688 -59.867188 C 18.894531 -64.539062 22.503906 -64.324219 26.113281 -64.855469 C 27.066406 -65.066406 27.066406 -66.660156 26.007812 -66.660156 L 3.078125 -66.660156 C 2.015625 -66.660156 1.910156 -65.066406 2.972656 -64.855469 C 6.582031 -64.324219 9.871094 -64.644531 12.207031 -59.335938 L 32.375 -3.503906 C 33.753906 -0.53125 34.816406 1.273438 37.894531 0.320312 L 61.988281 -57.636719 C 68.675781 -39.59375 75.257812 -21.546875 81.839844 -3.503906 C 83.21875 -0.53125 84.28125 1.273438 87.359375 0.320312 L 112.304688 -59.441406 C 114.53125 -64.855469 118.355469 -64.324219 121.964844 -64.855469 C 122.917969 -65.066406 122.917969 -66.660156 121.855469 -66.660156 Z M 121.855469 -66.660156 "/></g></g></g><g fill="#ffffff" fill-opacity="1"><g transform="translate(505.119356, 163.527757)"><g><path d="M 47.660156 -27.808594 C 47.660156 -41.078125 38.425781 -49.570312 25.371094 -49.570312 C 10.828125 -49.570312 2.015625 -39.167969 2.230469 -24.308594 C 2.441406 -6.15625 14.964844 0.53125 26.855469 0.53125 C 35.453125 0.53125 42.988281 -3.289062 46.175781 -9.128906 C 46.917969 -10.402344 46.066406 -11.570312 45.113281 -11.570312 C 44.582031 -11.570312 43.945312 -11.25 43.519531 -10.507812 C 40.230469 -4.988281 34.710938 -2.652344 28.554688 -2.546875 C 19.425781 -2.335938 10.402344 -8.597656 10.296875 -24.414062 L 44.15625 -24.414062 C 46.597656 -24.414062 47.660156 -26.007812 47.660156 -27.808594 Z M 35.027344 -27.386719 L 10.507812 -27.386719 C 11.144531 -38.636719 15.921875 -46.175781 26.21875 -46.492188 C 35.664062 -46.492188 40.65625 -39.699219 40.65625 -32.691406 C 40.65625 -29.191406 39.0625 -27.386719 35.027344 -27.386719 Z M 35.027344 -27.386719 "/></g></g></g><g fill="#ffffff" fill-opacity="1"><g transform="translate(557.024592, 163.527757)"><g><path d="M 23.566406 -1.804688 C 20.0625 -2.441406 16.878906 -1.484375 16.878906 -7.113281 L 16.878906 -74.726562 C 16.878906 -75.46875 16.242188 -75.46875 15.605469 -75.152344 C 12.101562 -73.453125 7.855469 -72.179688 4.035156 -71.226562 C 2.335938 -70.695312 2.867188 -69.3125 3.925781 -69.3125 C 8.917969 -69.3125 9.660156 -69.3125 9.660156 -63.6875 L 9.660156 -7.113281 C 9.660156 -1.484375 6.582031 -2.441406 2.972656 -1.804688 C 1.910156 -1.59375 2.015625 0 3.078125 0 L 23.457031 0 C 24.625 0 24.625 -1.59375 23.566406 -1.804688 Z M 23.566406 -1.804688 "/></g></g></g><g fill="#ffffff" fill-opacity="1"><g transform="translate(583.561015, 163.527757)"><g><path d="M 23.566406 -1.804688 C 20.0625 -2.441406 16.878906 -1.484375 16.878906 -7.113281 L 16.878906 -74.726562 C 16.878906 -75.46875 16.242188 -75.46875 15.605469 -75.152344 C 12.101562 -73.453125 7.855469 -72.179688 4.035156 -71.226562 C 2.335938 -70.695312 2.867188 -69.3125 3.925781 -69.3125 C 8.917969 -69.3125 9.660156 -69.3125 9.660156 -63.6875 L 9.660156 -7.113281 C 9.660156 -1.484375 6.582031 -2.441406 2.972656 -1.804688 C 1.910156 -1.59375 2.015625 0 3.078125 0 L 23.457031 0 C 24.625 0 24.625 -1.59375 23.566406 -1.804688 Z M 23.566406 -1.804688 "/></g></g></g><g fill="#ffffff" fill-opacity="1"><g transform="translate(610.097437, 163.527757)"><g><path d="M 58.273438 -1.804688 C 54.664062 -2.441406 51.585938 -1.484375 51.585938 -7.113281 L 51.585938 -35.347656 C 51.585938 -44.6875 43.308594 -49.464844 34.496094 -49.464844 C 27.703125 -49.464844 20.59375 -46.597656 16.878906 -40.65625 L 16.878906 -74.726562 C 16.878906 -75.46875 16.132812 -75.46875 15.605469 -75.152344 C 12.101562 -73.453125 7.855469 -72.179688 3.925781 -71.226562 C 2.230469 -70.695312 2.761719 -69.3125 3.820312 -69.3125 C 8.917969 -69.3125 9.554688 -69.3125 9.554688 -63.6875 L 9.554688 -7.113281 C 9.554688 -1.484375 6.476562 -2.441406 2.972656 -1.804688 C 1.910156 -1.59375 1.910156 0 3.078125 0 L 23.457031 0 C 24.519531 0 24.625 -1.59375 23.566406 -1.804688 C 19.957031 -2.441406 16.878906 -1.484375 16.878906 -7.113281 L 16.878906 -32.375 C 16.878906 -40.867188 25.050781 -45.429688 32.375 -45.429688 C 38.636719 -45.429688 44.261719 -42.246094 44.261719 -35.347656 L 44.261719 -7.113281 C 44.261719 -1.484375 41.183594 -2.441406 37.574219 -1.804688 C 36.621094 -1.59375 36.621094 0 37.683594 0 L 58.167969 0 C 59.230469 0 59.230469 -1.59375 58.273438 -1.804688 Z M 58.273438 -1.804688 "/></g></g></g><g fill="#ffffff" fill-opacity="1"><g transform="translate(671.237351, 163.527757)"><g><path d="M 46.175781 -1.699219 C 44.15625 -1.699219 42.882812 -2.441406 42.882812 -6.792969 C 42.882812 -16.242188 42.882812 -26.75 42.882812 -36.089844 C 42.882812 -44.898438 33.859375 -49.570312 24.625 -49.570312 C 19.320312 -49.570312 13.90625 -47.976562 10.082031 -44.792969 C 9.660156 -44.476562 9.234375 -44.15625 8.917969 -43.625 C 8.808594 -43.625 8.808594 -43.625 8.703125 -43.519531 C 8.28125 -42.988281 7.855469 -42.457031 7.429688 -41.820312 C 6.792969 -41.078125 6.367188 -40.015625 6.050781 -39.0625 C 5.945312 -38.851562 5.839844 -38.636719 5.730469 -38.425781 C 5.730469 -38.320312 5.730469 -38.320312 5.730469 -38.214844 C 5.414062 -37.257812 5.203125 -36.410156 5.203125 -35.558594 C 5.308594 -31.738281 7.324219 -30.144531 9.339844 -30.144531 C 11.675781 -30.144531 14.011719 -32.480469 12.523438 -35.984375 C 11.25 -38.851562 10.933594 -42.988281 15.179688 -45.113281 C 17.515625 -46.175781 20.167969 -46.703125 22.929688 -46.703125 C 29.402344 -46.703125 35.664062 -43.519531 35.664062 -36.089844 C 35.664062 -33.222656 35.664062 -30.464844 35.664062 -27.703125 C 35.664062 -26.960938 31.949219 -27.171875 26.960938 -26.855469 C 16.769531 -26.324219 2.230469 -23.777344 2.121094 -11.039062 C 2.121094 -4.882812 7.324219 0.957031 16.769531 0.957031 C 27.386719 0.957031 33.222656 -4.457031 35.664062 -10.828125 C 35.664062 -9.128906 35.664062 -7.324219 35.664062 -5.519531 C 35.664062 -0.847656 39.0625 0.53125 42.566406 0.53125 C 43.839844 0.53125 45.113281 0.320312 46.28125 0 C 47.449219 -0.320312 47.234375 -1.699219 46.175781 -1.699219 Z M 19 -2.441406 C 13.691406 -2.441406 10.402344 -6.261719 10.402344 -10.933594 C 10.402344 -24.203125 26.535156 -25.050781 35.664062 -25.050781 C 35.664062 -23.988281 35.664062 -22.929688 35.664062 -21.761719 C 35.347656 -6.367188 25.476562 -2.441406 19 -2.441406 Z M 19 -2.441406 "/></g></g></g><g fill="#ffffff" fill-opacity="1"><g transform="translate(720.488935, 163.527757)"><g><path d="M 23.566406 -1.804688 C 20.0625 -2.441406 16.878906 -1.484375 16.878906 -7.113281 L 16.878906 -74.726562 C 16.878906 -75.46875 16.242188 -75.46875 15.605469 -75.152344 C 12.101562 -73.453125 7.855469 -72.179688 4.035156 -71.226562 C 2.335938 -70.695312 2.867188 -69.3125 3.925781 -69.3125 C 8.917969 -69.3125 9.660156 -69.3125 9.660156 -63.6875 L 9.660156 -7.113281 C 9.660156 -1.484375 6.582031 -2.441406 2.972656 -1.804688 C 1.910156 -1.59375 2.015625 0 3.078125 0 L 23.457031 0 C 24.625 0 24.625 -1.59375 23.566406 -1.804688 Z M 23.566406 -1.804688 "/></g></g></g><g fill="#ffffff" fill-opacity="1"><g transform="translate(747.025358, 163.527757)"><g><path d="M 23.566406 -1.804688 C 20.0625 -2.441406 16.878906 -1.484375 16.878906 -7.113281 L 16.878906 -74.726562 C 16.878906 -75.46875 16.242188 -75.46875 15.605469 -75.152344 C 12.101562 -73.453125 7.855469 -72.179688 4.035156 -71.226562 C 2.335938 -70.695312 2.867188 -69.3125 3.925781 -69.3125 C 8.917969 -69.3125 9.660156 -69.3125 9.660156 -63.6875 L 9.660156 -7.113281 C 9.660156 -1.484375 6.582031 -2.441406 2.972656 -1.804688 C 1.910156 -1.59375 2.015625 0 3.078125 0 L 23.457031 0 C 24.625 0 24.625 -1.59375 23.566406 -1.804688 Z M 23.566406 -1.804688 "/></g></g></g><g fill="#ffffff" fill-opacity="1"><g transform="translate(310.56188, 221.88224)"><g><path d="M 25.308594 -9.261719 C 24.554688 -9.261719 23.96875 -8.757812 23.96875 -7.960938 C 23.96875 -7.039062 24.765625 -6.496094 25.519531 -5.613281 C 26.777344 -4.230469 25.644531 -1.800781 23.382812 -1.800781 C 19.484375 -1.800781 18.4375 -7.625 14.078125 -8.714844 C 19.316406 -9.175781 24.722656 -11.691406 24.722656 -17.558594 C 24.722656 -23.339844 19.359375 -26.316406 13.367188 -26.316406 L 1.214844 -26.316406 C 0.753906 -26.316406 0.753906 -25.6875 1.171875 -25.601562 C 2.554688 -25.394531 3.8125 -25.730469 3.8125 -23.507812 L 3.8125 -2.765625 C 3.8125 -0.542969 2.554688 -0.878906 1.171875 -0.671875 C 0.753906 -0.585938 0.753906 0.0429688 1.214844 0.0429688 L 9.511719 0.0429688 C 9.929688 0.0429688 9.929688 -0.585938 9.554688 -0.671875 C 8.128906 -0.878906 6.914062 -0.542969 6.914062 -2.765625 L 6.914062 -23.589844 C 6.914062 -25.058594 7.792969 -25.351562 8.839844 -25.351562 L 8.714844 -25.394531 C 8.96875 -25.394531 9.300781 -25.394531 10.097656 -25.394531 C 16.929688 -25.394531 21.160156 -22.878906 21.160156 -17.515625 C 21.160156 -12.152344 16.300781 -9.34375 10.097656 -9.34375 C 9.429688 -9.34375 9.722656 -9.386719 9.09375 -9.46875 C 8.378906 -9.554688 8.378906 -8.589844 9.136719 -8.632812 C 14.539062 -8.421875 16.382812 0.378906 22 0.378906 C 25.644531 0.378906 27.027344 -2.554688 27.070312 -5.488281 C 27.113281 -6.746094 27.152344 -9.261719 25.308594 -9.261719 Z M 25.308594 -9.261719 "/></g></g></g><g fill="#ffffff" fill-opacity="1"><g transform="translate(338.508665, 221.88224)"><g><path d="M 18.816406 -10.980469 C 18.816406 -16.214844 15.167969 -19.570312 10.015625 -19.570312 C 4.273438 -19.570312 0.796875 -15.460938 0.878906 -9.597656 C 0.964844 -2.429688 5.910156 0.210938 10.601562 0.210938 C 13.996094 0.210938 16.972656 -1.300781 18.226562 -3.605469 C 18.519531 -4.105469 18.1875 -4.566406 17.808594 -4.566406 C 17.597656 -4.566406 17.347656 -4.441406 17.179688 -4.148438 C 15.882812 -1.96875 13.703125 -1.046875 11.273438 -1.003906 C 7.667969 -0.921875 4.105469 -3.394531 4.066406 -9.636719 L 17.433594 -9.636719 C 18.394531 -9.636719 18.816406 -10.265625 18.816406 -10.980469 Z M 13.828125 -10.8125 L 4.148438 -10.8125 C 4.398438 -15.253906 6.285156 -18.226562 10.351562 -18.355469 C 14.078125 -18.355469 16.050781 -15.671875 16.050781 -12.90625 C 16.050781 -11.523438 15.421875 -10.8125 13.828125 -10.8125 Z M 13.828125 -10.8125 "/></g></g></g><g fill="#ffffff" fill-opacity="1"><g transform="translate(358.99738, 221.88224)"><g><path d="M 9.511719 -11.398438 C 7.542969 -12.066406 4.066406 -12.738281 4.066406 -15.335938 C 4.066406 -16.886719 5.574219 -18.4375 8.339844 -18.4375 C 10.644531 -18.4375 11.773438 -17.433594 12.234375 -15.671875 C 12.488281 -14.707031 13.117188 -14.332031 13.703125 -14.332031 C 14.875 -14.332031 15.964844 -15.839844 14.207031 -17.597656 C 12.824219 -18.980469 10.980469 -19.484375 8.339844 -19.527344 C 5.070312 -19.570312 1.632812 -18.101562 1.632812 -14.289062 C 1.632812 -10.140625 5.742188 -9.511719 8.800781 -8.464844 C 10.726562 -7.835938 13.910156 -6.871094 13.910156 -4.484375 C 13.910156 -2.640625 12.066406 -0.753906 8.800781 -0.753906 C 5.449219 -0.753906 3.144531 -1.84375 1.761719 -3.058594 C 1.632812 -3.183594 1.464844 -3.226562 1.339844 -3.226562 C 0.921875 -3.226562 0.671875 -2.765625 1.089844 -2.347656 C 2.976562 -0.542969 5.824219 0.460938 8.632812 0.460938 C 12.277344 0.460938 16.34375 -1.003906 16.34375 -5.320312 C 16.34375 -9.21875 12.570312 -10.390625 9.511719 -11.398438 Z M 9.511719 -11.398438 "/></g></g></g><g fill="#ffffff" fill-opacity="1"><g transform="translate(376.176065, 221.88224)"><g><path d="M 10.519531 -19.527344 C -2.386719 -19.527344 -2.386719 0.417969 10.519531 0.417969 C 23.464844 0.417969 23.464844 -19.527344 10.519531 -19.527344 Z M 10.519531 -0.417969 C 1.800781 -0.417969 1.761719 -18.6875 10.519531 -18.6875 C 19.277344 -18.6875 19.234375 -0.417969 10.519531 -0.417969 Z M 10.519531 -0.417969 "/></g></g></g><g fill="#ffffff" fill-opacity="1"><g transform="translate(397.251371, 221.88224)"><g><path d="M 16.59375 -18.3125 C 15.421875 -19.148438 14.121094 -19.527344 12.824219 -19.527344 C 10.390625 -19.527344 7.960938 -18.1875 6.664062 -15.882812 L 6.664062 -19.234375 C 6.664062 -19.527344 6.371094 -19.570312 6.160156 -19.441406 C 4.734375 -18.773438 3.058594 -18.269531 1.550781 -17.851562 C 0.878906 -17.683594 1.089844 -17.097656 1.507812 -17.097656 C 3.519531 -17.097656 3.769531 -17.136719 3.769531 -14.875 L 3.769531 -2.808594 C 3.769531 -0.585938 2.554688 -0.964844 1.132812 -0.710938 C 0.753906 -0.628906 0.753906 0 1.171875 0 L 9.261719 0 C 9.679688 0 9.679688 -0.628906 9.300781 -0.710938 C 7.878906 -0.964844 6.664062 -0.585938 6.664062 -2.808594 L 6.664062 -12.65625 C 6.664062 -15.839844 9.554688 -18.144531 11.984375 -18.144531 C 13.15625 -18.144531 14.207031 -17.597656 14.75 -16.257812 C 15.085938 -15.421875 15.628906 -15.085938 16.175781 -15.085938 C 17.433594 -15.085938 18.605469 -16.84375 16.59375 -18.3125 Z M 16.59375 -18.3125 "/></g></g></g><g fill="#ffffff" fill-opacity="1"><g transform="translate(415.812724, 221.88224)"><g><path d="M 10.097656 -1.550781 C 8.96875 -1.089844 8.003906 -0.839844 7.207031 -0.839844 C 5.65625 -0.839844 4.820312 -1.800781 4.820312 -4.316406 L 4.820312 -18.144531 L 7.960938 -18.144531 C 8.714844 -18.144531 8.714844 -19.066406 7.960938 -19.066406 C 6.578125 -19.066406 5.574219 -19.066406 4.820312 -19.066406 C 4.820312 -20.953125 4.820312 -22.835938 4.820312 -24.722656 C 4.820312 -25.058594 4.566406 -25.226562 4.316406 -25.226562 C 4.066406 -25.226562 3.8125 -25.058594 3.8125 -24.722656 C 3.605469 -19.988281 2.472656 -19.109375 -0.710938 -19.066406 C -1.425781 -19.066406 -1.425781 -18.144531 -0.710938 -18.144531 L 1.96875 -18.144531 L 1.96875 -4.230469 C 1.925781 -0.753906 3.769531 0.503906 6.035156 0.503906 C 7.417969 0.503906 9.007812 0.0429688 10.433594 -0.671875 C 11.144531 -1.003906 10.769531 -1.84375 10.097656 -1.550781 Z M 10.097656 -1.550781 "/></g></g></g><g fill="#ffffff" fill-opacity="1"><g transform="translate(427.502611, 221.88224)"><g/></g></g><g fill="#ffffff" fill-opacity="1"><g transform="translate(436.678545, 221.88224)"><g><path d="M 23.886719 -20.574219 C 25.730469 -15.671875 16.761719 -14.875 13.324219 -11.773438 C 13.242188 -11.734375 13.15625 -11.605469 13.074219 -11.523438 L 13.03125 -11.523438 C 11.230469 -9.804688 10.390625 -5.78125 13.117188 -5.742188 C 13.871094 -5.742188 14.5 -6.328125 14.5 -7.375 C 14.5 -8.800781 12.363281 -9.722656 13.617188 -11.019531 C 14.121094 -11.398438 14.707031 -11.734375 15.421875 -12.027344 C 15.460938 -12.066406 15.503906 -12.066406 15.503906 -12.066406 C 16.257812 -12.445312 17.054688 -12.65625 17.808594 -12.65625 C 20.03125 -12.65625 22 -11.019531 21.582031 -7.039062 C 21.160156 -2.808594 16.675781 -0.839844 12.234375 -0.878906 C 1.046875 -1.003906 2.304688 -13.910156 10.308594 -13.785156 C 10.851562 -13.785156 11.019531 -14.5 10.308594 -14.5 C 7.082031 -14.539062 5.28125 -16.972656 5.28125 -20.28125 C 5.28125 -24.347656 8.507812 -26.105469 11.355469 -26.105469 C 13.996094 -26.105469 16.300781 -24.640625 15.589844 -21.957031 C 15.253906 -20.660156 15.921875 -19.988281 16.636719 -19.988281 C 17.265625 -19.988281 17.894531 -20.492188 17.894531 -21.582031 C 17.894531 -25.351562 13.953125 -26.945312 10.769531 -26.984375 C 1.089844 -27.113281 -0.210938 -15.882812 8.085938 -14.078125 L 7.753906 -14.121094 C -1.84375 -13.03125 -2.347656 0.210938 12.277344 0.417969 C 26.859375 0.585938 27.277344 -11.984375 19.570312 -13.703125 C 23.003906 -15.042969 26.398438 -16.71875 26.734375 -20.492188 C 26.859375 -22.167969 25.9375 -22.878906 25.101562 -22.878906 C 24.179688 -22.878906 23.339844 -22.042969 23.886719 -20.574219 Z M 23.886719 -20.574219 "/></g></g></g><g fill="#ffffff" fill-opacity="1"><g transform="translate(464.290135, 221.88224)"><g/></g></g><g fill="#ffffff" fill-opacity="1"><g transform="translate(473.466069, 221.88224)"><g><path d="M 11.523438 -15.628906 C 6.035156 -16.804688 4.945312 -18.773438 4.945312 -20.867188 C 4.945312 -24.472656 8.378906 -25.894531 12.066406 -25.894531 C 13.578125 -25.894531 15.085938 -25.6875 16.425781 -25.269531 C 19.023438 -24.261719 18.519531 -22.921875 19.191406 -21.789062 C 19.527344 -21.203125 20.03125 -20.992188 20.449219 -20.992188 C 21.453125 -20.992188 22.25 -22.207031 21.078125 -23.589844 C 20.699219 -24.050781 20.070312 -24.511719 19.359375 -24.972656 L 19.277344 -24.972656 C 18.5625 -25.394531 17.894531 -25.6875 17.304688 -25.855469 C 15.628906 -26.441406 13.746094 -26.777344 11.859375 -26.777344 C 6.871094 -26.777344 2.011719 -24.597656 2.011719 -19.402344 C 2.011719 -13.535156 9.429688 -12.90625 14.832031 -11.605469 C 24.597656 -9.300781 20.324219 -0.628906 12.195312 -0.417969 C 8.96875 -0.335938 4.609375 -1.675781 2.386719 -4.820312 C 2.136719 -5.152344 1.886719 -5.28125 1.632812 -5.28125 C 1.003906 -5.28125 0.503906 -4.484375 1.257812 -3.730469 C 4.734375 -0.542969 8.171875 0.503906 12.78125 0.503906 C 18.3125 0.503906 23.632812 -1.761719 23.632812 -7.25 C 23.632812 -13.410156 16.84375 -14.539062 11.523438 -15.628906 Z M 11.523438 -15.628906 "/></g></g></g><g fill="#ffffff" fill-opacity="1"><g transform="translate(497.935215, 221.88224)"><g><path d="M 12.320312 -19.527344 C 9.554688 -19.527344 7.375 -18.730469 5.824219 -17.011719 L 5.824219 -18.980469 C 5.824219 -19.277344 5.574219 -19.316406 5.363281 -19.191406 C 3.9375 -18.480469 2.261719 -18.019531 0.753906 -17.597656 C 0.0820312 -17.433594 0.292969 -16.84375 0.710938 -16.84375 C 2.683594 -16.84375 2.976562 -16.886719 2.976562 -14.625 L 2.976562 7.667969 C 2.976562 9.890625 1.761719 9.554688 0.335938 9.804688 C -0.0820312 9.847656 -0.0429688 10.519531 0.378906 10.519531 L 8.421875 10.519531 C 8.882812 10.519531 8.882812 9.847656 8.464844 9.804688 C 7.082031 9.554688 5.824219 9.890625 5.824219 7.667969 L 5.824219 -1.96875 C 6.996094 -0.542969 8.925781 0.417969 11.480469 0.417969 C 17.390625 0.417969 21.078125 -3.9375 21.078125 -9.722656 C 21.078125 -15.210938 17.808594 -19.527344 12.320312 -19.527344 Z M 11.144531 -0.585938 C 8.589844 -0.542969 5.824219 -1.96875 5.824219 -6.203125 L 5.824219 -14.792969 C 5.824219 -16.46875 8.378906 -18.355469 11.019531 -18.355469 C 15.882812 -18.355469 18.058594 -13.996094 17.933594 -9.511719 C 17.808594 -5.070312 15.210938 -0.585938 11.144531 -0.585938 Z M 11.144531 -0.585938 "/></g></g></g><g fill="#ffffff" fill-opacity="1"><g transform="translate(519.84852, 221.88224)"><g><path d="M 18.226562 -0.671875 C 17.433594 -0.671875 16.929688 -0.964844 16.929688 -2.683594 C 16.929688 -6.410156 16.929688 -10.558594 16.929688 -14.246094 C 16.929688 -17.726562 13.367188 -19.570312 9.722656 -19.570312 C 7.625 -19.570312 5.488281 -18.941406 3.980469 -17.683594 C 3.8125 -17.558594 3.644531 -17.433594 3.519531 -17.222656 C 3.476562 -17.222656 3.476562 -17.222656 3.4375 -17.179688 C 3.269531 -16.972656 3.101562 -16.761719 2.933594 -16.511719 C 2.683594 -16.214844 2.515625 -15.796875 2.386719 -15.421875 C 2.347656 -15.335938 2.304688 -15.253906 2.261719 -15.167969 C 2.261719 -15.128906 2.261719 -15.128906 2.261719 -15.085938 C 2.136719 -14.707031 2.054688 -14.371094 2.054688 -14.039062 C 2.09375 -12.527344 2.890625 -11.902344 3.6875 -11.902344 C 4.609375 -11.902344 5.53125 -12.824219 4.945312 -14.207031 C 4.441406 -15.335938 4.316406 -16.972656 5.992188 -17.808594 C 6.914062 -18.226562 7.960938 -18.4375 9.050781 -18.4375 C 11.605469 -18.4375 14.078125 -17.179688 14.078125 -14.246094 C 14.078125 -13.117188 14.078125 -12.027344 14.078125 -10.9375 C 14.078125 -10.644531 12.613281 -10.726562 10.644531 -10.601562 C 6.621094 -10.390625 0.878906 -9.386719 0.839844 -4.359375 C 0.839844 -1.925781 2.890625 0.378906 6.621094 0.378906 C 10.8125 0.378906 13.117188 -1.761719 14.078125 -4.273438 C 14.078125 -3.605469 14.078125 -2.890625 14.078125 -2.179688 C 14.078125 -0.335938 15.421875 0.210938 16.804688 0.210938 C 17.304688 0.210938 17.808594 0.125 18.269531 0 C 18.730469 -0.125 18.648438 -0.671875 18.226562 -0.671875 Z M 7.5 -0.964844 C 5.40625 -0.964844 4.105469 -2.472656 4.105469 -4.316406 C 4.105469 -9.554688 10.476562 -9.890625 14.078125 -9.890625 C 14.078125 -9.46875 14.078125 -9.050781 14.078125 -8.589844 C 13.953125 -2.515625 10.058594 -0.964844 7.5 -0.964844 Z M 7.5 -0.964844 "/></g></g></g><g fill="#ffffff" fill-opacity="1"><g transform="translate(539.28975, 221.88224)"><g/></g></g><g fill="#ffffff" fill-opacity="1"><g transform="translate(548.465685, 221.88224)"><g><path d="M 28.367188 -0.878906 C 26.945312 -1.132812 25.730469 -0.796875 25.730469 -2.976562 L 25.730469 -23.675781 C 25.730469 -25.894531 26.945312 -25.519531 28.367188 -25.769531 C 28.789062 -25.855469 28.746094 -26.484375 28.328125 -26.484375 L 20.070312 -26.484375 C 19.609375 -26.484375 19.609375 -25.855469 20.03125 -25.769531 C 21.414062 -25.519531 22.628906 -25.894531 22.628906 -23.675781 L 22.628906 -14.332031 L 6.871094 -14.332031 L 6.871094 -23.675781 C 6.871094 -25.894531 8.085938 -25.519531 9.511719 -25.769531 C 9.929688 -25.855469 9.890625 -26.484375 9.46875 -26.484375 L 1.214844 -26.484375 C 0.753906 -26.484375 0.753906 -25.855469 1.171875 -25.769531 C 2.554688 -25.519531 3.769531 -25.894531 3.769531 -23.675781 L 3.769531 -2.976562 C 3.769531 -0.796875 2.554688 -1.132812 1.171875 -0.878906 C 0.753906 -0.839844 0.753906 -0.210938 1.214844 -0.210938 L 9.46875 -0.210938 C 9.890625 -0.210938 9.929688 -0.839844 9.511719 -0.878906 C 8.085938 -1.132812 6.871094 -0.796875 6.871094 -2.976562 L 6.871094 -13.367188 L 22.628906 -13.367188 L 22.628906 -2.976562 C 22.628906 -0.796875 21.414062 -1.132812 20.03125 -0.878906 C 19.609375 -0.839844 19.609375 -0.210938 20.070312 -0.210938 L 28.328125 -0.210938 C 28.746094 -0.210938 28.789062 -0.839844 28.367188 -0.878906 Z M 28.367188 -0.878906 "/></g></g></g><g fill="#ffffff" fill-opacity="1"><g transform="translate(578.004635, 221.88224)"><g><path d="M 10.519531 -19.527344 C -2.386719 -19.527344 -2.386719 0.417969 10.519531 0.417969 C 23.464844 0.417969 23.464844 -19.527344 10.519531 -19.527344 Z M 10.519531 -0.417969 C 1.800781 -0.417969 1.761719 -18.6875 10.519531 -18.6875 C 19.277344 -18.6875 19.234375 -0.417969 10.519531 -0.417969 Z M 10.519531 -0.417969 "/></g></g></g><g fill="#ffffff" fill-opacity="1"><g transform="translate(599.079931, 221.88224)"><g><path d="M 10.097656 -1.550781 C 8.96875 -1.089844 8.003906 -0.839844 7.207031 -0.839844 C 5.65625 -0.839844 4.820312 -1.800781 4.820312 -4.316406 L 4.820312 -18.144531 L 7.960938 -18.144531 C 8.714844 -18.144531 8.714844 -19.066406 7.960938 -19.066406 C 6.578125 -19.066406 5.574219 -19.066406 4.820312 -19.066406 C 4.820312 -20.953125 4.820312 -22.835938 4.820312 -24.722656 C 4.820312 -25.058594 4.566406 -25.226562 4.316406 -25.226562 C 4.066406 -25.226562 3.8125 -25.058594 3.8125 -24.722656 C 3.605469 -19.988281 2.472656 -19.109375 -0.710938 -19.066406 C -1.425781 -19.066406 -1.425781 -18.144531 -0.710938 -18.144531 L 1.96875 -18.144531 L 1.96875 -4.230469 C 1.925781 -0.753906 3.769531 0.503906 6.035156 0.503906 C 7.417969 0.503906 9.007812 0.0429688 10.433594 -0.671875 C 11.144531 -1.003906 10.769531 -1.84375 10.097656 -1.550781 Z M 10.097656 -1.550781 "/></g></g></g><g fill="#ffffff" fill-opacity="1"><g transform="translate(610.769829, 221.88224)"><g><path d="M 18.816406 -10.980469 C 18.816406 -16.214844 15.167969 -19.570312 10.015625 -19.570312 C 4.273438 -19.570312 0.796875 -15.460938 0.878906 -9.597656 C 0.964844 -2.429688 5.910156 0.210938 10.601562 0.210938 C 13.996094 0.210938 16.972656 -1.300781 18.226562 -3.605469 C 18.519531 -4.105469 18.1875 -4.566406 17.808594 -4.566406 C 17.597656 -4.566406 17.347656 -4.441406 17.179688 -4.148438 C 15.882812 -1.96875 13.703125 -1.046875 11.273438 -1.003906 C 7.667969 -0.921875 4.105469 -3.394531 4.066406 -9.636719 L 17.433594 -9.636719 C 18.394531 -9.636719 18.816406 -10.265625 18.816406 -10.980469 Z M 13.828125 -10.8125 L 4.148438 -10.8125 C 4.398438 -15.253906 6.285156 -18.226562 10.351562 -18.355469 C 14.078125 -18.355469 16.050781 -15.671875 16.050781 -12.90625 C 16.050781 -11.523438 15.421875 -10.8125 13.828125 -10.8125 Z M 13.828125 -10.8125 "/></g></g></g><g fill="#ffffff" fill-opacity="1"><g transform="translate(631.258532, 221.88224)"><g><path d="M 9.300781 -0.710938 C 7.917969 -0.964844 6.664062 -0.585938 6.664062 -2.808594 L 6.664062 -29.5 C 6.664062 -29.792969 6.410156 -29.792969 6.160156 -29.667969 C 4.777344 -28.996094 3.101562 -28.496094 1.59375 -28.117188 C 0.921875 -27.90625 1.132812 -27.363281 1.550781 -27.363281 C 3.519531 -27.363281 3.8125 -27.363281 3.8125 -25.140625 L 3.8125 -2.808594 C 3.8125 -0.585938 2.597656 -0.964844 1.171875 -0.710938 C 0.753906 -0.628906 0.796875 0 1.214844 0 L 9.261719 0 C 9.722656 0 9.722656 -0.628906 9.300781 -0.710938 Z M 9.300781 -0.710938 "/></g></g></g></svg>