<svg width="110" height="108" viewBox="0 0 110 108" fill="none" xmlns="http://www.w3.org/2000/svg">
<path d="M54.8249 107.65C40.6092 107.65 27.2092 105.462 17.0931 101.488C6.28007 97.2404 0.325012 91.3161 0.325012 84.8064C0.325012 81.5122 1.90036 76.6014 9.40539 71.9136C14.7189 68.5948 22.1657 65.9226 30.9407 64.1864C32.2149 63.9341 33.4516 64.766 33.703 66.0443C33.9543 67.3225 33.1251 68.5632 31.8509 68.8152C15.8075 71.9897 5.02839 78.4161 5.02839 84.8064C5.02839 89.1757 10.051 93.6547 18.8081 97.0945C28.3909 100.859 41.182 102.932 54.8251 102.932C68.4681 102.932 81.2591 100.859 90.842 97.0945C99.5993 93.6547 104.622 89.1759 104.622 84.8064C104.622 78.3323 93.6497 71.8683 77.319 68.7215C76.0434 68.4757 75.2081 67.2392 75.4532 65.9598C75.6981 64.6801 76.9312 63.8422 78.2062 64.0881C87.1123 65.8042 94.6791 68.4767 100.088 71.8165C107.723 76.5301 109.325 81.4821 109.325 84.8064C109.325 91.3161 103.37 97.2404 92.5569 101.488C82.4407 105.462 69.0405 107.65 54.8249 107.65ZM54.8266 85.724C54.1347 85.724 53.4496 85.4193 52.9852 84.8341C41.8478 70.8011 35.3296 58.7701 31.8227 51.1486C28.1522 43.1714 26.9161 38.2545 26.7713 37.6508C26.0733 35.1207 25.7195 32.4955 25.7195 29.8473C25.7195 22.0484 28.747 14.7164 34.2443 9.20168C39.7416 3.68698 47.0506 0.650024 54.8249 0.650024C56.1237 0.650024 57.1766 1.70613 57.1766 3.00907C57.1766 4.31188 56.1237 5.36811 54.8249 5.36811C41.3696 5.36811 30.4227 16.3495 30.4227 29.8473C30.4227 32.0833 30.7228 34.2981 31.3145 36.4298L31.3401 36.5306C31.3505 36.5751 32.4955 41.3869 36.1744 49.348C39.5706 56.6973 45.8823 68.3097 56.6648 81.8956C57.4737 82.9148 57.3059 84.3989 56.2898 85.2104C55.8569 85.556 55.3398 85.724 54.8266 85.724ZM55.2989 85.724C54.7856 85.724 54.2686 85.556 53.8358 85.2103C52.8198 84.3988 52.6518 82.9147 53.4608 81.8955C74.1678 55.8047 78.7416 36.7202 78.7853 36.5305L78.8109 36.4298C79.4027 34.2978 79.7027 32.0832 79.7027 29.8473C79.7027 16.3495 68.756 5.36811 55.3005 5.36811C54.0018 5.36811 52.9488 4.31188 52.9488 3.00907C52.9488 1.70613 54.0018 0.650025 55.3005 0.650025C63.0748 0.650025 70.3838 3.68711 75.8812 9.20168C81.3784 14.7164 84.4059 22.0484 84.4059 29.8473C84.4059 32.4952 84.0521 35.1204 83.3541 37.6506C83.2096 38.2539 81.9735 43.1709 78.3027 51.1486C74.7958 58.7701 68.2776 70.8011 57.1402 84.8341C56.6759 85.4191 55.9906 85.724 55.2989 85.724ZM54.8249 45.1023C47.1221 45.1023 40.8555 38.816 40.8555 31.0889C40.8555 23.3618 47.1221 17.0754 54.8249 17.0754C62.5276 17.0754 68.7944 23.3618 68.7944 31.0889C68.7944 38.816 62.5276 45.1023 54.8249 45.1023ZM54.8249 21.7934C49.7156 21.7934 45.5588 25.9633 45.5588 31.0888C45.5588 36.2142 49.7156 40.3841 54.8249 40.3841C59.9343 40.3841 64.0911 36.2142 64.0911 31.0888C64.0911 25.9633 59.9343 21.7934 54.8249 21.7934Z" fill="white"/>
</svg>
